<svg width="20" height="20" viewBox="0 0 20 20" fill="none" xmlns="http://www.w3.org/2000/svg">
<path d="M4.63155 8.13588L4.39239 7.24671C4.15155 6.35588 4.68072 5.44004 5.57239 5.20254L13.9416 2.97254C14.8249 2.73754 15.7416 3.26671 15.9799 4.14921L17.4416 9.57338C17.6816 10.4642 17.1516 11.38 16.2616 11.6175L14.4999 12.0867" fill="#FFF1DB"/>
<path d="M4.63155 8.13588L4.39239 7.24671C4.15155 6.35588 4.68072 5.44004 5.57239 5.20254L13.9416 2.97254C14.8249 2.73754 15.7416 3.26671 15.9799 4.14921L17.4416 9.57338C17.6816 10.4642 17.1516 11.38 16.2616 11.6175L14.4999 12.0867" stroke="#FD9339" stroke-linecap="round" stroke-linejoin="round"/>
<rect x="2.5" y="8.33325" width="11.6667" height="3.33333" fill="white"/>
<path d="M4.16667 17.0832H12.8333C13.7542 17.0832 14.5 16.3374 14.5 15.4166V9.80241C14.5 8.88158 13.7542 8.13574 12.8333 8.13574H4.16667C3.24583 8.13574 2.5 8.88158 2.5 9.80241V15.4166C2.5 16.3374 3.24667 17.0832 4.16667 17.0832Z" stroke="#FD9339" stroke-linecap="round" stroke-linejoin="round"/>
<path d="M2.5 11.5349H14.5" stroke="#FD9339" stroke-linecap="round" stroke-linejoin="round"/>
</svg>
