<svg width="20" height="20" viewBox="0 0 20 20" fill="none" xmlns="http://www.w3.org/2000/svg">
<path d="M16.6666 9.16675V15.8334C16.6666 16.2754 16.491 16.6994 16.1784 17.0119C15.8659 17.3245 15.4419 17.5001 14.9999 17.5001H4.99992C4.55789 17.5001 4.13397 17.3245 3.82141 17.0119C3.50885 16.6994 3.33325 16.2754 3.33325 15.8334V9.16675" fill="#FFF1DB"/>
<path d="M16.6666 9.16675V15.8334C16.6666 16.2754 16.491 16.6994 16.1784 17.0119C15.8659 17.3245 15.4419 17.5001 14.9999 17.5001H4.99992C4.55789 17.5001 4.13397 17.3245 3.82141 17.0119C3.50885 16.6994 3.33325 16.2754 3.33325 15.8334V9.16675" stroke="#FD9339" stroke-linecap="round" stroke-linejoin="round"/>
<path d="M11.6667 9.16659H16.25C16.5815 9.16659 16.8995 9.03489 17.1339 8.80047C17.3683 8.56605 17.5 8.24811 17.5 7.91659V7.08325C17.5 6.75173 17.3683 6.43379 17.1339 6.19937C16.8995 5.96495 16.5815 5.83325 16.25 5.83325H3.75C3.41848 5.83325 3.10054 5.96495 2.86612 6.19937C2.6317 6.43379 2.5 6.75173 2.5 7.08325V7.91659C2.5 8.24811 2.6317 8.56605 2.86612 8.80047C3.10054 9.03489 3.41848 9.16659 3.75 9.16659H8.33333" stroke="#FD9339" stroke-linecap="round" stroke-linejoin="round"/>
<path d="M8.33341 2.5C8.77544 2.5 9.19936 2.67559 9.51193 2.98816C9.82449 3.30072 10.0001 3.72464 10.0001 4.16667V5.83333H8.33341C7.89139 5.83333 7.46746 5.65774 7.1549 5.34518C6.84234 5.03262 6.66675 4.60869 6.66675 4.16667C6.66675 3.72464 6.84234 3.30072 7.1549 2.98816C7.46746 2.67559 7.89139 2.5 8.33341 2.5Z" stroke="#FD9339" stroke-linecap="round" stroke-linejoin="round"/>
<path d="M11.6667 2.5C12.1087 2.5 12.5326 2.67559 12.8452 2.98816C13.1577 3.30072 13.3333 3.72464 13.3333 4.16667C13.3333 4.60869 13.1577 5.03262 12.8452 5.34518C12.5326 5.65774 12.1087 5.83333 11.6667 5.83333H10V4.16667C10 3.72464 10.1756 3.30072 10.4882 2.98816C10.8007 2.67559 11.2246 2.5 11.6667 2.5Z" stroke="#FD9339" stroke-linecap="round" stroke-linejoin="round"/>
<path d="M10.8333 5.83325H9.16659C8.70635 5.83325 8.33325 6.20635 8.33325 6.66659V16.6666C8.33325 17.1268 8.70635 17.4999 9.16659 17.4999H10.8333C11.2935 17.4999 11.6666 17.1268 11.6666 16.6666V6.66659C11.6666 6.20635 11.2935 5.83325 10.8333 5.83325Z" fill="white" stroke="#FD9339" stroke-linecap="round" stroke-linejoin="round"/>
</svg>
