<?xml version="1.0" encoding="utf-8"?><svg viewBox="0 0 40 36" xmlns="http://www.w3.org/2000/svg" xmlns:xlink="http://www.w3.org/1999/xlink"><style>:root>svg{display:none}:root>svg:target{display:block}</style><svg viewBox="0 0 40 36" id="basket" xmlns="http://www.w3.org/2000/svg"><path d="M7.017 19.183a1.079 1.079 0 01-.006-.035L4.57 4.507A3 3 0 001.61 2H1a1 1 0 010-2h.611a5 5 0 014.9 4H39a1 1 0 01.962 1.275l-4 14A1 1 0 0135 20H9.18l.25 1.493A3 3 0 0012.388 24H35a1 1 0 110 2H12.389a5 5 0 01-4.932-4.178l-.44-2.639zM6.847 6l2 12h25.399l3.428-12H6.847zM12 36a4 4 0 110-8 4 4 0 010 8zm0-2a2 2 0 100-4 2 2 0 000 4zm18 2a4 4 0 110-8 4 4 0 010 8zm0-2a2 2 0 100-4 2 2 0 000 4z"/></svg><svg viewBox="0 0 22 22" id="cereal-bowl" xmlns="http://www.w3.org/2000/svg"><path d="M18.333 2.75v7.333M20.167 4.583L18.333 2.75H3.667h14.666H3.667L1.833 4.583" stroke-width="1.4" stroke-linecap="round" stroke-linejoin="round"/><path d="M3.667 2.75v14.667A1.833 1.833 0 005.5 19.25h1.833M4.049 2.75l1.594 2.392a1.833 1.833 0 001.526.816h7.662a1.833 1.833 0 001.526-.816L17.95 2.75M16.72 20.167h-4.106a.688.688 0 01-.687-.688v-.795a5.712 5.712 0 01-2.741-3.811.926.926 0 01.896-1.123h9.169a.928.928 0 01.897 1.123 5.71 5.71 0 01-2.741 3.811v.795a.687.687 0 01-.688.688v0z" stroke-width="1.4" stroke-linecap="round" stroke-linejoin="round"/></svg><svg viewBox="0 0 22 22" id="cheese" xmlns="http://www.w3.org/2000/svg"><path d="M6.875 16.5a1.375 1.375 0 100-2.75 1.375 1.375 0 000 2.75z" stroke-width="1.4" stroke-linecap="round" stroke-linejoin="round"/><path d="M3.438 10.43l7.93-6.359a1.88 1.88 0 011.393-.392 7.345 7.345 0 016.489 7.302v6.432a1.835 1.835 0 01-1.833 1.837H4.583a1.836 1.836 0 01-1.833-1.837v-5.549a1.839 1.839 0 01.688-1.434v0z" stroke-width="1.4" stroke-linecap="round" stroke-linejoin="round"/><path d="M15.583 19.25h-2.291a.917.917 0 01-.917-.917v-.229a2.062 2.062 0 012.063-2.062v0a2.062 2.062 0 012.062 2.062v.23a.917.917 0 01-.917.916v0zM19.25 11H2.968M11.23 11h1.832a.917.917 0 01.917.917 1.833 1.833 0 01-3.666 0 .917.917 0 01.916-.917v0z" stroke-width="1.4" stroke-linecap="round" stroke-linejoin="round"/></svg><svg viewBox="0 0 20 20" id="credit-cards" xmlns="http://www.w3.org/2000/svg"><path d="M4.632 8.136l-.24-.89a1.665 1.665 0 011.18-2.043l8.37-2.23c.883-.235 1.8.294 2.038 1.176l1.462 5.424c.24.891-.29 1.807-1.18 2.044l-1.762.47"/><path d="M4.632 8.136l-.24-.89a1.665 1.665 0 011.18-2.043l8.37-2.23c.883-.235 1.8.294 2.038 1.176l1.462 5.424c.24.891-.29 1.807-1.18 2.044l-1.762.47" stroke-linecap="round" stroke-linejoin="round"/><path d="M2.5 8.333h11.667v3.333H2.5z"/><path d="M4.167 17.083h8.666c.921 0 1.667-.746 1.667-1.666V9.802c0-.92-.746-1.666-1.667-1.666H4.167c-.921 0-1.667.746-1.667 1.666v5.615c0 .92.747 1.666 1.667 1.666zM2.5 11.535h12" stroke-linecap="round" stroke-linejoin="round"/></svg><svg viewBox="0 0 16 14" id="favorites" xmlns="http://www.w3.org/2000/svg"><path d="M11.083.324c2.642 0 4.417 2.473 4.417 4.78 0 4.672-7.367 8.498-7.5 8.498S.5 9.776.5 5.104C.5 2.797 2.275.324 4.917.324c1.516 0 2.508.755 3.083 1.419.575-.664 1.567-1.42 3.083-1.42z"/></svg><svg viewBox="0 0 14 18" id="map-marker" xmlns="http://www.w3.org/2000/svg"><path d="M.7 7.208V7.05a6.3 6.3 0 1112.6 0v.158c0 3.172-4.017 7.948-5.635 9.745a.892.892 0 01-1.33 0C4.717 15.156.7 10.381.7 7.208v0z" stroke-linecap="round" stroke-linejoin="round"/><path d="M5.167 7.125a1.833 1.833 0 103.666 0v-.034a1.833 1.833 0 10-3.666 0" stroke-linecap="round" stroke-linejoin="round"/></svg><svg viewBox="0 0 20 20" id="medal" xmlns="http://www.w3.org/2000/svg"><path d="M5.105 11.5L2.5 14.167l2.083 1.25 1.25 2.083 3.25-3.412M10.918 14.088l3.249 3.412 1.25-2.083 2.083-1.25-2.605-2.667" stroke-linecap="round" stroke-linejoin="round"/><path d="M14.125 4.209a5.833 5.833 0 11-8.25 8.25 5.833 5.833 0 018.25-8.25z" stroke-linecap="round" stroke-linejoin="round"/><path d="M10 10.487l1.497.786a.397.397 0 00.576-.419l-.286-1.667L13 8.007a.398.398 0 00-.22-.679l-1.674-.243-.748-1.517a.397.397 0 00-.713 0l-.748 1.517-1.675.244a.398.398 0 00-.22.679l1.212 1.18-.286 1.667a.397.397 0 00.576.42l1.498-.787h-.002v-.001z" stroke-linecap="round" stroke-linejoin="round"/></svg><svg viewBox="0 0 16 16" id="monolog" xmlns="http://www.w3.org/2000/svg"><path d="M8.75 11.75h3.75a2.25 2.25 0 002.25-2.25v-6a2.25 2.25 0 00-2.25-2.25h-9A2.25 2.25 0 001.25 3.5v6a2.25 2.25 0 002.25 2.25H5v3l3.75-3z" stroke-width="1.2" stroke-linecap="round" stroke-linejoin="round"/></svg><svg viewBox="0 0 14 14" id="phone" xmlns="http://www.w3.org/2000/svg"><path d="M6.142 7.858a9.476 9.476 0 01-1.979-2.857.561.561 0 01.125-.62l.614-.614c.503-.503.503-1.214.064-1.654l-.88-.88a1.5 1.5 0 00-2.122 0l-.489.488C.92 2.277.688 3.08.838 3.875c.37 1.96 1.509 4.105 3.346 5.942 1.836 1.837 3.982 2.975 5.942 3.346.795.15 1.597-.082 2.152-.638l.489-.488a1.5 1.5 0 000-2.12l-.88-.88a1.124 1.124 0 00-1.59 0l-.678.678a.561.561 0 01-.62.124 9.495 9.495 0 01-2.857-1.98v0z" stroke-linecap="round" stroke-linejoin="round"/></svg><svg viewBox="0 0 20 20" id="present" xmlns="http://www.w3.org/2000/svg"><path d="M16.667 9.167v6.666A1.666 1.666 0 0115 17.5H5a1.667 1.667 0 01-1.667-1.667V9.167"/><path d="M16.667 9.167v6.666A1.666 1.666 0 0115 17.5H5a1.667 1.667 0 01-1.667-1.667V9.167M11.667 9.167h4.583a1.25 1.25 0 001.25-1.25v-.834a1.25 1.25 0 00-1.25-1.25H3.75a1.25 1.25 0 00-1.25 1.25v.834a1.25 1.25 0 001.25 1.25h4.583" stroke-linecap="round" stroke-linejoin="round"/><path d="M8.333 2.5A1.667 1.667 0 0110 4.167v1.666H8.333a1.667 1.667 0 110-3.333zM11.667 2.5a1.667 1.667 0 010 3.333H10V4.167A1.667 1.667 0 0111.667 2.5z" stroke-linecap="round" stroke-linejoin="round"/><path d="M10.833 5.833H9.167a.833.833 0 00-.834.834v10c0 .46.373.833.834.833h1.666c.46 0 .834-.373.834-.833v-10a.833.833 0 00-.834-.834z" stroke-linecap="round" stroke-linejoin="round"/></svg><svg viewBox="0 0 24 24" id="search" xmlns="http://www.w3.org/2000/svg"><path d="M11.059 18.118a7.059 7.059 0 100-14.118 7.059 7.059 0 000 14.118zM20 20l-3.95-3.95" stroke-width="1.2" stroke-linecap="round" stroke-linejoin="round"/></svg><svg viewBox="0 0 18 18" id="user" xmlns="http://www.w3.org/2000/svg"><path d="M3.5 15.035a7.901 7.901 0 015.521-2.257c2.116 0 4.04.842 5.479 2.214a7.901 7.901 0 01-5.521 2.258c-2.116 0-4.04-.842-5.479-2.215zM1.644 12.69A8.186 8.186 0 01.75 9C.75 4.44 4.44.75 9 .75c4.56 0 8.25 3.69 8.25 8.25 0 1.33-.333 2.576-.896 3.688" stroke-linecap="round" stroke-linejoin="round"/><path d="M10.944 5.222a2.75 2.75 0 11-3.888 3.89 2.75 2.75 0 013.888-3.89z" stroke-linecap="round" stroke-linejoin="round"/></svg><svg viewBox="0 0 18 18" id="watch" xmlns="http://www.w3.org/2000/svg"><path d="M5.844 1.38a8.248 8.248 0 116.312 15.24A8.248 8.248 0 015.844 1.38" stroke-linecap="round" stroke-linejoin="round"/><path d="M8.742 5.32v4.263l3.35 2.043" stroke-linecap="round" stroke-linejoin="round"/></svg></svg>