<?xml version="1.0" encoding="utf-8"?><svg viewBox="0 0 40 36" xmlns="http://www.w3.org/2000/svg" xmlns:xlink="http://www.w3.org/1999/xlink"><style>:root>svg{display:none}:root>svg:target{display:block}</style><svg viewBox="0 0 40 36" id="basket" xmlns="http://www.w3.org/2000/svg"><path d="M7.017 19.183a1.079 1.079 0 01-.006-.035L4.57 4.507A3 3 0 001.61 2H1a1 1 0 010-2h.611a5 5 0 014.9 4H39a1 1 0 01.962 1.275l-4 14A1 1 0 0135 20H9.18l.25 1.493A3 3 0 0012.388 24H35a1 1 0 110 2H12.389a5 5 0 01-4.932-4.178l-.44-2.639zM6.847 6l2 12h25.399l3.428-12H6.847zM12 36a4 4 0 110-8 4 4 0 010 8zm0-2a2 2 0 100-4 2 2 0 000 4zm18 2a4 4 0 110-8 4 4 0 010 8zm0-2a2 2 0 100-4 2 2 0 000 4z"/></svg><svg viewBox="0 0 14 18" id="map-marker" xmlns="http://www.w3.org/2000/svg"><path d="M.7 7.208V7.05a6.3 6.3 0 1112.6 0v.158c0 3.172-4.017 7.948-5.635 9.745a.892.892 0 01-1.33 0C4.717 15.156.7 10.381.7 7.208v0z" stroke-linecap="round" stroke-linejoin="round"/><path d="M5.167 7.125a1.833 1.833 0 103.666 0v-.034a1.833 1.833 0 10-3.666 0" stroke-linecap="round" stroke-linejoin="round"/></svg><svg viewBox="0 0 14 14" id="phone" xmlns="http://www.w3.org/2000/svg"><path d="M6.142 7.858a9.476 9.476 0 01-1.979-2.857.561.561 0 01.125-.62l.614-.614c.503-.503.503-1.214.064-1.654l-.88-.88a1.5 1.5 0 00-2.122 0l-.489.488C.92 2.277.688 3.08.838 3.875c.37 1.96 1.509 4.105 3.346 5.942 1.836 1.837 3.982 2.975 5.942 3.346.795.15 1.597-.082 2.152-.638l.489-.488a1.5 1.5 0 000-2.12l-.88-.88a1.124 1.124 0 00-1.59 0l-.678.678a.561.561 0 01-.62.124 9.495 9.495 0 01-2.857-1.98v0z" stroke-linecap="round" stroke-linejoin="round"/></svg><svg viewBox="0 0 24 24" id="search" xmlns="http://www.w3.org/2000/svg"><path d="M11.059 18.118a7.059 7.059 0 100-14.118 7.059 7.059 0 000 14.118zM20 20l-3.95-3.95" stroke-width="1.2" stroke-linecap="round" stroke-linejoin="round"/></svg><svg viewBox="0 0 18 18" id="user" xmlns="http://www.w3.org/2000/svg"><path d="M3.5 15.035a7.901 7.901 0 015.521-2.257c2.116 0 4.04.842 5.479 2.214a7.901 7.901 0 01-5.521 2.258c-2.116 0-4.04-.842-5.479-2.215zM1.644 12.69A8.186 8.186 0 01.75 9C.75 4.44 4.44.75 9 .75c4.56 0 8.25 3.69 8.25 8.25 0 1.33-.333 2.576-.896 3.688" stroke-linecap="round" stroke-linejoin="round"/><path d="M10.944 5.222a2.75 2.75 0 11-3.888 3.89 2.75 2.75 0 013.888-3.89z" stroke-linecap="round" stroke-linejoin="round"/></svg><svg viewBox="0 0 18 18" id="watch" xmlns="http://www.w3.org/2000/svg"><path d="M5.844 1.38a8.248 8.248 0 116.312 15.24A8.248 8.248 0 015.844 1.38" stroke-linecap="round" stroke-linejoin="round"/><path d="M8.742 5.32v4.263l3.35 2.043" stroke-linecap="round" stroke-linejoin="round"/></svg></svg>